#!OML:ASF H:\ManfredETheater\Project 1\Capture day 1\Session 1\subject.ASF
:FULLY-SPECIFIED
:DEGREES
168
root 1.08067 17.8796 -15.6764 -174.337 -6.50435 178.066
lowerback 1.33265 -0.63356 -1.02931
upperback -4.21853 -0.968001 2.12842
thorax -5.05491 -0.464941 2.84419
lowerneck -16.7288 -2.24805 -3.43318
upperneck 17.9425 -2.47859 0.164985
head 8.38824 -1.48387 0.307959
rclavicle 4.67144e-015 -4.13472e-014
rhumerus -40.0149 -11.8508 -78.3638
rradius 27.8693
rwrist 9.84127
rhand -16.9656 -9.10497
rfingers 7.12502
rthumb 9.2685 -38.8812
lclavicle 4.67144e-015 -4.13472e-014
lhumerus -40.2551 5.72977 86.0536
lradius 47.0988
lwrist -3.89974
lhand -16.6582 7.42894
lfingers 7.12502
lthumb 9.56512 37.1918
rfemur -13.4849 1.28769 23.2387
rtibia 32.7038
rfoot -18.1184 -14.6286
rtoes -6.01229
lfemur -18.8627 -7.83424 -21.0277
ltibia 39.5868
lfoot -21.1962 -2.77656
ltoes 9.15527
169
root 1.07892 17.8777 -15.699 -174.267 -6.4674 178.075
lowerback 1.32266 -0.684106 -1.0475
upperback -4.20549 -1.03542 2.14474
thorax -5.03122 -0.497594 2.87462
lowerneck -16.7414 -2.19687 -3.37747
upperneck 17.9701 -2.41691 0.133419
head 8.39743 -1.45512 0.295359
rclavicle 1.27968e-014 -1.59028e-015
rhumerus -40.0086 -11.7694 -78.3506
rradius 28.1234
rwrist 9.60241
rhand -17.0701 -9.09435
rfingers 7.12502
rthumb 9.16771 -38.8751
lclavicle 1.27968e-014 -1.59028e-015
lhumerus -40.2029 5.43365 86.3079
lradius 47.2976
lwrist -3.80001
lhand -16.6114 7.33508
lfingers 7.12502
lthumb 9.61026 37.0959
rfemur -13.477 1.29809 23.2516
rtibia 32.699
rfoot -18.1893 -14.6266
rtoes -6.06341
lfemur -18.8508 -7.83362 -21.0221
ltibia 39.5882
lfoot -21.2743 -2.72812
ltoes 9.1734
170
root 1.07689 17.8759 -15.721 -174.198 -6.42794 178.085
lowerback 1.31093 -0.735371 -1.0606
upperback -4.19774 -1.104 2.16043
thorax -5.01203 -0.531131 2.90162
lowerneck -16.7413 -2.14282 -3.31944
upperneck 17.9966 -2.35307 0.103244
head 8.40398 -1.42524 0.283228
rclavicle 9.7653e-015 -1.66979e-014
rhumerus -39.9909 -11.6992 -78.3303
rradius 28.3629
rwrist 9.40445
rhand -17.1796 -9.10942
rfingers 7.12502
rthumb 9.06201 -38.8948
lclavicle 9.7653e-015 -1.66979e-014
lhumerus -40.1572 5.13618 86.5536
lradius 47.4413
lwrist -3.73386
lhand -16.5462 7.22652
lfingers 7.12502
lthumb 9.67316 36.9844
rfemur -13.4699 1.29894 23.2645
rtibia 32.6943
rfoot -18.2588 -14.614
rtoes -6.11326
lfemur -18.8388 -7.83773 -21.0148
ltibia 39.5898
lfoot -21.3513 -2.67823
ltoes 9.17954
171
root 1.07478 17.8741 -15.7423 -174.129 -6.38185 178.098
lowerback 1.29443 -0.785196 -1.07055
upperback -4.19203 -1.17075 2.17622
thorax -4.99233 -0.563998 2.92675
lowerneck -16.7411 -2.08843 -3.26088
upperneck 18.0215 -2.28887 0.0734142
head 8.41003 -1.39506 0.271183
rclavicle 9.01985e-015 2.94201e-014
rhumerus -39.954 -11.6416 -78.3041
rradius 28.59
rwrist 9.24296
rhand -17.2826 -9.15759
rfingers 7.12502
rthumb 8.96265 -38.9472
lclavicle 9.01985e-015 2.94201e-014
lhumerus -40.1116 4.84004 86.7917
lradius 47.5359
lwrist -3.70705
lhand -16.4616 7.11701
lfingers 7.12502
lthumb 9.75481 36.8711
rfemur -13.469 1.29841 23.2785
rtibia 32.691
rfoot -18.3232 -14.595
rtoes -6.16465
lfemur -18.8303 -7.84588 -21.0041
ltibia 39.5909
lfoot -21.428 -2.62351
ltoes 9.17261
172
root 1.07249 17.8723 -15.7629 -174.059 -6.33058 178.109
lowerback 1.27322 -0.833722 -1.08079
upperback -4.18616 -1.23585 2.19096
thorax -4.96985 -0.596118 2.95069
lowerneck -16.7457 -2.03507 -3.20517
upperneck 18.0455 -2.22563 0.0471519
head 8.41678 -1.36503 0.26065
rclavicle -6.60959e-015 1.98785e-014
rhumerus -39.8958 -11.5754 -78.292
rradius 28.7889
rwrist 8.98564
rhand -17.4898 -9.14376
rfingers 7.12502
rthumb 8.76272 -38.9419
lclavicle -6.60959e-015 1.98785e-014
lhumerus -40.0589 4.55144 87.0203
lradius 47.5804
lwrist -3.73257
lhand -16.3407 7.02424
lfingers 7.12502
lthumb 9.87146 36.7728
rfemur -13.4722 1.2935 23.2891
rtibia 32.6904
rfoot -18.3847 -14.5677
rtoes -6.21795
lfemur -18.8219 -7.85689 -20.9949
ltibia 39.5903
lfoot -21.5054 -2.56645
ltoes 9.15928
173
root 1.07009 17.8704 -15.783 -173.989 -6.27051 178.12
lowerback 1.24826 -0.879163 -1.09056
upperback -4.18327 -1.29707 2.20496
thorax -4.94854 -0.626427 2.97331
lowerneck -16.7481 -1.98259 -3.15108
upperneck 18.0704 -2.16367 0.0220786
head 8.42356 -1.33567 0.250634
rclavicle -2.36802e-014 -1.19271e-014
rhumerus -39.8275 -11.5095 -78.2833
rradius 28.9681
rwrist 8.67361
rhand -17.7544 -9.09184
rfingers 7.12502
rthumb 8.50732 -38.9005
lclavicle -2.36802e-014 -1.19271e-014
lhumerus -40.0064 4.27272 87.2387
lradius 47.576
lwrist -3.80942
lhand -16.1863 6.93435
lfingers 7.12502
lthumb 10.0205 36.6758
rfemur -13.4796 1.29142 23.2975
rtibia 32.6932
rfoot -18.4447 -14.5348
rtoes -6.27216
lfemur -18.8132 -7.86769 -20.9863
ltibia 39.5875
lfoot -21.5836 -2.50588
ltoes 9.14786
174
root 1.06761 17.8685 -15.8024 -173.919 -6.20002 178.128
lowerback 1.22234 -0.920748 -1.10333
upperback -4.18058 -1.35328 2.21759
thorax -4.92712 -0.654158 2.99585
lowerneck -16.7529 -1.93333 -3.09662
upperneck 18.0903 -2.1053 -0.00524494
head 8.42918 -1.30802 0.239383
rclavicle -1.83379e-014 6.83819e-014
rhumerus -39.7444 -11.4402 -78.2824
rradius 29.1283
rwrist 8.28937
rhand -18.0804 -8.98023
rfingers 7.12502
rthumb 8.19273 -38.8014
lclavicle -1.83379e-014 6.83819e-014
lhumerus -39.9526 4.00566 87.4464
lradius 47.5314
lwrist -3.93764
lhand -15.9979 6.84941
lfingers 7.12502
lthumb 10.2022 36.582
rfemur -13.4918 1.29632 23.3015
rtibia 32.6999
rfoot -18.505 -14.4976
rtoes -6.31041
lfemur -18.8033 -7.87517 -20.9813
ltibia 39.5815
lfoot -21.6615 -2.44014
ltoes 9.13441
175
root 1.06512 17.8665 -15.821 -173.85 -6.12133 178.132
lowerback 1.19625 -0.958751 -1.11942
upperback -4.17851 -1.40486 2.22832
thorax -4.90646 -0.679485 3.018
lowerneck -16.7651 -1.88742 -3.04095
upperneck 18.1111 -2.05065 -0.0359967
head 8.43648 -1.2823 0.226264
rclavicle -1.14053e-014 5.00937e-014
rhumerus -39.6491 -11.3735 -78.2862
rradius 29.2715
rwrist 7.84655
rhand -18.4586 -8.80339
rfingers 7.12502
rthumb 7.82774 -38.6385
lclavicle -1.14053e-014 5.00937e-014
lhumerus -39.8981 3.7507 87.6422
lradius 47.4467
lwrist -4.11745
lhand -15.7814 6.76003
lfingers 7.12502
lthumb 10.4111 36.4823
rfemur -13.5087 1.30796 23.3008
rtibia 32.7103
rfoot -18.5675 -14.4582
rtoes -6.34209
lfemur -18.7933 -7.87744 -20.9805
ltibia 39.5723
lfoot -21.7394 -2.37227
ltoes 9.12863
176
root 1.06258 17.8643 -15.8392 -173.783 -6.03447 178.132
lowerback 1.1732 -0.993453 -1.1409
upperback -4.1792 -1.45236 2.23589
thorax -4.89058 -0.702562 3.0398
lowerneck -16.771 -1.84417 -2.9799
upperneck 18.1272 -2.00039 -0.0709732
head 8.44106 -1.25868 0.210394
rclavicle -1.78906e-015 -1.90833e-014
rhumerus -39.5518 -11.3096 -78.2914
rradius 29.406
rwrist 7.37563
rhand -18.835 -8.59642
rfingers 7.12502
rthumb 7.46443 -38.4447
lclavicle -1.78906e-015 -1.90833e-014
lhumerus -39.8496 3.50797 87.8249
lradius 47.3235
lwrist -4.337
lhand -15.5492 6.65223
lfingers 7.12502
lthumb 10.635 36.3631
rfemur -13.5251 1.32543 23.2933
rtibia 32.7231
rfoot -18.6374 -14.4139
rtoes -6.34093
lfemur -18.7789 -7.8723 -20.9871
ltibia 39.5607
lfoot -21.8187 -2.30107
ltoes 9.12716
177
root 1.05987 17.862 -15.8567 -173.718 -5.94009 178.128
lowerback 1.15046 -1.02519 -1.16575
upperback -4.17824 -1.4959 2.24097
thorax -4.87333 -0.723543 3.06061
lowerneck -16.7874 -1.80605 -2.91839
upperneck 18.1431 -1.95592 -0.108986
head 8.44758 -1.23791 0.192645
rclavicle -1.00883e-014 -3.10104e-014
rhumerus -39.4457 -11.2547 -78.2938
rradius 29.5404
rwrist 6.91803
rhand -19.1757 -8.40097
rfingers 7.12502
rthumb 7.13559 -38.2607
lclavicle -1.00883e-014 -3.10104e-014
lhumerus -39.8003 3.28192 87.996
lradius 47.1654
lwrist -4.58447
lhand -15.305 6.53039
lfingers 7.12502
lthumb 10.8706 36.229
rfemur -13.5417 1.3438 23.2789
rtibia 32.7372
rfoot -18.7137 -14.3616
rtoes -6.3187
lfemur -18.7614 -7.85878 -21.0013
ltibia 39.5473
lfoot -21.897 -2.22718
ltoes 9.13359
178
root 1.05716 17.8595 -15.8734 -173.656 -5.83871 178.13
lowerback 1.13557 -1.05261 -1.18515
upperback -4.18154 -1.53368 2.24582
thorax -4.86546 -0.741815 3.07815
lowerneck -16.7948 -1.77256 -2.85794
upperneck 18.1517 -1.91796 -0.146228
head 8.45019 -1.22011 0.174661
rclavicle 5.51627e-015 -1.98785e-014
rhumerus -39.3434 -11.2154 -78.2845
rradius 29.6792
rwrist 6.51788
rhand -19.4451 -8.24182
rfingers 7.12502
rthumb 6.87549 -38.1102
lclavicle 5.51627e-015 -1.98785e-014
lhumerus -39.7643 3.07212 88.1547
lradius 46.9793
lwrist -4.84739
lhand -15.0592 6.39042
lfingers 7.12502
lthumb 11.1077 36.0765
rfemur -13.558 1.37053 23.27
rtibia 32.7509
rfoot -18.7933 -14.3084
rtoes -6.27902
lfemur -18.7426 -7.83326 -21.0111
ltibia 39.5334
lfoot -21.9706 -2.15172
ltoes 9.13221
179
root 1.05433 17.8569 -15.8896 -173.598 -5.73156 178.13
lowerback 1.12232 -1.07699 -1.20539
upperback -4.18317 -1.56733 2.24829
thorax -4.85704 -0.75798 3.09346
lowerneck -16.8126 -1.74442 -2.80357
upperneck 18.1601 -1.88642 -0.176707
head 8.45481 -1.20483 0.159101
rclavicle -3.77691e-015 6.36111e-015
rhumerus -39.2336 -11.1898 -78.2678
rradius 29.8264
rwrist 6.18677
rhand -19.6299 -8.14998
rfingers 7.12502
rthumb 6.69706 -38.0241
lclavicle -3.77691e-015 6.36111e-015
lhumerus -39.7307 2.88015 88.301
lradius 46.7678
lwrist -5.11154
lhand -14.7997 6.26189
lfingers 7.12502
lthumb 11.3579 35.9343
rfemur -13.5716 1.397 23.2576
rtibia 32.7633
rfoot -18.8781 -14.2483
rtoes -6.22906
lfemur -18.7207 -7.79814 -21.0255
ltibia 39.5195
lfoot -22.0423 -2.07459
ltoes 9.13416
